# xmcd
#
# Track frame offsets: 
#        150
#        15400
#        33037
#        49493
#        69625
#        84929
#        103733
#        120920
#        136581
#        151268
#        167072
#        184650
#        203243
#        221939
#        252022
#
# Disc length: 4440 seconds
#
# Revision: 1
# Processed by: cddbd v1.5.2PL0 Copyright (c) Steve Scherf et al.
# Submitted via: ExactAudioCopy v1.0b3
#
DISCID=bf11560f
DTITLE=Matthias Reim - Küssen oder so
DYEAR=2004
DGENRE=Salsa
TTITLE0=Ich hab geträumt von Dir
TTITLE1=Ganz Egal
TTITLE2=Verdammt ich lieb Dich
TTITLE3=Warum
TTITLE4=Ich hab mich so auf Dich gefreut
TTITLE5=Im Himmel geht es weiter
TTITLE6=Geh doch zum Teufel
TTITLE7=Zauberland
TTITLE8=Küssen oder so
TTITLE9=Gib dein Herz um keine Krone
TTITLE10=Wenn die Liebe geht
TTITLE11=Hallo ich möcht gern wissen wie es dir geht
TTITLE12=Sag mir dass es wahr ist
TTITLE13=Wenn Du gehen willst musst du gehn
TTITLE14=Data
EXTD=YEAR: 2004
EXTT0=
EXTT1=
EXTT2=
EXTT3=
EXTT4=
EXTT5=
EXTT6=
EXTT7=
EXTT8=
EXTT9=
EXTT10=
EXTT11=
EXTT12=
EXTT13=
EXTT14=
PLAYORDER=
